<?xml version="1.0" encoding="utf-8"?>
<!-- Generator: Adobe Illustrator 21.0.0, SVG Export Plug-In . SVG Version: 6.00 Build 0)  -->
<svg version="1.1" id="Capa_1" xmlns="http://www.w3.org/2000/svg" xmlns:xlink="http://www.w3.org/1999/xlink" x="0px" y="0px"
	 viewBox="0 0 493.457 124" enable-background="new 0 0 493.457 124" xml:space="preserve">
<g>
	<path fill="#12A1DC" d="M155.222,38.682c10.302,0,16.263,5.96,16.263,13.982c0,5.372-3.385,9.787-7.653,11.185
		c4.71,1.104,9.272,5.446,9.272,12.217c0,8.537-6.477,14.792-16.337,14.792h-21.047V38.682H155.222z M153.383,59.581
		c4.047,0,6.696-2.134,6.696-5.667c0-3.385-2.281-5.593-6.843-5.593h-6.182v11.26H153.383z M154.338,81.365
		c4.489,0,7.212-2.355,7.212-6.109c0-3.605-2.648-6.108-7.212-6.108h-7.285v12.217H154.338z"/>
	<path fill="#12A1DC" d="M203.571,65.321c-1.252-0.295-2.429-0.368-3.532-0.368c-4.489,0-8.537,2.65-8.537,9.935v15.969h-11.186
		V54.283h10.819v4.93c1.913-4.122,6.55-5.299,9.493-5.299c1.104,0,2.208,0.147,2.944,0.369V65.321z"/>
	<path fill="#12A1DC" d="M215.859,36.547c3.68,0,6.624,2.944,6.624,6.55c0,3.607-2.944,6.55-6.624,6.55
		c-3.532,0-6.475-2.943-6.475-6.55C209.383,39.491,212.326,36.547,215.859,36.547z M210.339,90.858V54.283h11.186v36.574H210.339z"
		/>
	<path fill="#12A1DC" d="M229.031,90.858v-9.862l16.117-17.147h-15.676v-9.566h29.952v9.198l-16.852,17.736h17.147v9.64H229.031z"/>
	<path fill="#12A1DC" d="M272.817,36.547c3.68,0,6.624,2.944,6.624,6.55c0,3.607-2.944,6.55-6.624,6.55
		c-3.532,0-6.475-2.943-6.475-6.55C266.342,39.491,269.285,36.547,272.817,36.547z M267.298,90.858V54.283h11.186v36.574H267.298z"
		/>
	<path fill="#12A1DC" d="M324.477,72.533c0,11.333-8.464,19.429-19.429,19.429c-10.892,0-19.427-8.096-19.427-19.429
		s8.536-19.354,19.427-19.354C316.013,53.179,324.477,61.201,324.477,72.533z M313.291,72.533c0-6.182-3.974-9.052-8.242-9.052
		c-4.195,0-8.242,2.87-8.242,9.052c0,6.108,4.047,9.125,8.242,9.125C309.316,81.658,313.291,78.715,313.291,72.533z"/>
	<path fill="#12A1DC" d="M333.381,90.858V38.682h7.212v45.406h24.654v6.77H333.381z"/>
	<path fill="#12A1DC" d="M381.508,70.62l9.567-1.399c2.133-0.294,2.723-1.398,2.723-2.648c0-3.459-2.282-6.329-7.654-6.329
		c-4.857,0-7.58,3.017-8.021,7.138l-6.624-1.545c0.737-6.77,6.844-11.48,14.497-11.48c10.597,0,14.719,6.035,14.719,12.952v17.735
		c0,3.092,0.295,4.931,0.442,5.814h-6.771c-0.147-0.883-0.368-2.208-0.368-4.783c-1.545,2.501-5.078,5.887-11.407,5.887
		c-7.212,0-11.848-5.004-11.848-10.597C370.763,75.036,375.399,71.503,381.508,70.62z M393.798,75.698v-1.619l-10.818,1.619
		c-2.944,0.441-5.152,2.134-5.152,5.298c0,2.65,2.208,5.152,5.74,5.152C389.235,86.148,393.798,83.425,393.798,75.698z"/>
	<path fill="#12A1DC" d="M411.459,90.858v-53.28h6.844v22.887c1.693-3.165,5.813-6.035,11.7-6.035
		c10.744,0,16.264,8.242,16.264,18.546c0,10.523-5.962,18.839-16.484,18.839c-5.225,0-9.272-2.282-11.48-6.109v5.152H411.459z
		 M428.753,60.538c-6.108,0-10.524,4.783-10.524,12.437c0,7.653,4.416,12.657,10.524,12.657c6.328,0,10.45-5.004,10.45-12.657
		C439.203,65.321,435.156,60.538,428.753,60.538z"/>
	<path fill="#12A1DC" d="M451.786,90.858v-6.035l19.427-23.107H452.08v-6.255h27.744v6.033l-19.427,23.108h19.795v6.255H451.786z"/>
</g>
<g>
	<path fill="#12A1DC" d="M65.673,34.37c-3.064,0-5.557,2.493-5.557,5.557c0,3.064,2.493,5.557,5.557,5.557
		c3.065,0,5.558-2.493,5.558-5.557S68.738,34.37,65.673,34.37z"/>
	<path fill="#12A1DC" d="M74.811,46.156c-2.436,0-4.418,1.982-4.418,4.418c0,2.436,1.982,4.418,4.418,4.418
		c2.436,0,4.418-1.982,4.418-4.418C79.229,48.138,77.247,46.156,74.811,46.156z"/>
	<g>
		<path fill="#12A1DC" d="M76.806,94.257c-0.321-3.003-0.819-5.853-1.48-8.46c-2.253,0.791-4.593,1.795-6.965,2.985
			c1.688,0.95,3.379,1.984,5.052,3.095C74.578,92.65,75.709,93.446,76.806,94.257z"/>
		<path fill="#12A1DC" d="M71.918,102.469c0-3.052-2.483-5.535-5.536-5.535c-3.052,0-5.536,2.483-5.536,5.535
			c0,0.255,0.023,0.504,0.057,0.75h10.959C71.897,102.971,71.918,102.721,71.918,102.469z"/>
		<path fill="#12A1DC" d="M55.53,102.469c0,0.252,0.011,0.499,0.013,0.75h3.481c-0.025-0.247-0.038-0.497-0.038-0.75
			c0-4.078,3.318-7.396,7.396-7.396c4.078,0,7.396,3.318,7.396,7.396c0,0.251-0.019,0.501-0.045,0.75h3.487
			c0.002-0.251,0.013-0.498,0.013-0.75c0-1.938-0.07-3.848-0.205-5.712c-1.477-1.143-3.03-2.257-4.645-3.33
			c-1.99-1.321-4.001-2.53-6.002-3.613c-2,1.083-4.012,2.292-6.002,3.613c-1.616,1.073-3.169,2.187-4.646,3.33
			C55.6,98.62,55.53,100.53,55.53,102.469z"/>
		<path fill="#12A1DC" d="M83.179,102.112c-0.391,0.189-0.829,0.295-1.292,0.295c-1.308,0-2.42-0.848-2.819-2.023
			c0.018,0.691,0.027,1.386,0.027,2.085c0,0.251-0.007,0.5-0.01,0.75h3.687c0.257-0.25,0.516-0.499,0.765-0.75
			C83.419,102.35,83.3,102.231,83.179,102.112z"/>
		<path fill="#12A1DC" d="M57.439,85.797c-0.661,2.607-1.159,5.455-1.48,8.458c1.097-0.811,2.229-1.606,3.393-2.378
			c1.674-1.111,3.364-2.145,5.052-3.095C62.032,87.592,59.692,86.588,57.439,85.797z"/>
		<path fill="#12A1DC" d="M53.67,102.469c0-1.397,0.036-2.779,0.105-4.142c-1.636,1.357-3.159,2.745-4.547,4.143
			c0.249,0.25,0.507,0.5,0.764,0.75h3.687C53.677,102.969,53.67,102.72,53.67,102.469z"/>
		<path fill="#12A1DC" d="M41.554,85.987c-1.491,2.245-0.443,6.206,2.874,10.865c1.006,1.414,2.185,2.846,3.511,4.275
			c1.802-1.81,3.819-3.602,6.005-5.332c0.315-3.777,0.898-7.356,1.724-10.582c-1.019-0.313-2.016-0.58-2.985-0.797
			C47.101,83.17,43.045,83.742,41.554,85.987z"/>
		<path fill="#12A1DC" d="M102.389,98.283l-16.36-35.679c0,0-4.431,1.033-10.483,1.033c-6.052,0-10.842-2.892-18.486-2.892
			c-7.644,0-11.742,1.858-11.742,1.858l-16.36,35.679c-1.058,2.308,0.628,4.936,3.167,4.936h13.847
			c0.224-0.25,0.442-0.501,0.675-0.751c-1.411-1.514-2.665-3.035-3.734-4.537c-3.844-5.4-4.877-10.008-2.908-12.974
			c1.338-2.016,3.915-3.049,7.46-3.049c1.67,0,3.554,0.229,5.625,0.692c0.999,0.223,2.026,0.498,3.075,0.819
			c0.312-1.051,0.652-2.058,1.018-3.014c2.373-6.19,5.64-9.598,9.2-9.598c2.141,0,4.23,1.261,6.043,3.648
			c0.311,0.409,0.231,0.993-0.178,1.304c-0.409,0.311-0.993,0.231-1.304-0.178c-1.468-1.932-3.003-2.912-4.561-2.912
			c-2.695,0-5.415,3.063-7.463,8.404c-0.356,0.927-0.685,1.906-0.987,2.927c2.728,0.951,5.575,2.201,8.45,3.708
			c2.875-1.507,5.723-2.757,8.45-3.708c-0.285-0.964-0.595-1.889-0.927-2.769c-0.182-0.481,0.061-1.017,0.541-1.199
			c0.481-0.181,1.018,0.061,1.199,0.542c0.342,0.906,0.661,1.857,0.955,2.848c1.048-0.321,2.075-0.595,3.075-0.819
			c2.071-0.463,3.956-0.692,5.625-0.692c3.545,0,6.121,1.032,7.46,3.049c1.969,2.966,0.936,7.573-2.908,12.973
			c-1.069,1.502-2.324,3.023-3.735,4.537c0.233,0.25,0.455,0.5,0.679,0.75h12.426C101.761,103.219,103.447,100.591,102.389,98.283z"
			/>
		<circle fill="#12A1DC" cx="81.888" cy="99.43" r="1.116"/>
		<path fill="#12A1DC" d="M91.211,85.987c-1.491-2.245-5.547-2.818-11.129-1.57c-0.97,0.217-1.967,0.484-2.986,0.797
			c0.826,3.227,1.409,6.807,1.725,10.584c0.482,0.382,0.956,0.766,1.421,1.153c0.472-0.314,1.038-0.498,1.646-0.498
			c1.642,0,2.977,1.336,2.977,2.977c0,0.502-0.126,0.976-0.346,1.392c0.103,0.102,0.206,0.205,0.308,0.307
			c1.326-1.429,2.504-2.862,3.511-4.276C91.654,92.193,92.701,88.233,91.211,85.987z"/>
	</g>
	<path fill="#12A1DC" d="M117.508,101.582L92.179,46.345c-0.572-1.247-2.046-1.794-3.292-1.222
		c-1.247,0.572-1.794,2.046-1.222,3.292l25.329,55.238c0.702,1.53,0.578,3.289-0.331,4.705c-0.909,1.416-2.456,2.262-4.14,2.262
		h-85.7c-1.683,0-3.231-0.846-4.14-2.262c-0.909-1.416-1.032-3.176-0.331-4.705l35.622-77.685h10.588
		c1.371,0,2.483-1.112,2.483-2.483s-1.112-2.483-2.483-2.483H50.501c-1.896,0-3.438-1.542-3.438-3.438
		c0-1.896,1.542-3.438,3.438-3.438h30.345c1.896,0,3.438,1.542,3.438,3.438c0,1.896-1.542,3.438-3.438,3.438h-1.881
		c-0.846,0-1.633,0.43-2.09,1.142c-0.457,0.712-0.52,1.607-0.167,2.376l6.857,14.954c0.572,1.247,2.046,1.795,3.292,1.222
		c1.247-0.572,1.794-2.046,1.222-3.292l-5.342-11.65c3.727-0.86,6.513-4.206,6.513-8.19c0-4.634-3.77-8.405-8.405-8.405H50.501
		c-4.634,0-8.405,3.77-8.405,8.405c0,3.984,2.787,7.33,6.513,8.19l-34.771,75.829c-1.41,3.075-1.161,6.61,0.665,9.457
		c1.827,2.848,4.937,4.547,8.32,4.547h85.7c3.383,0,6.493-1.7,8.32-4.547C118.67,108.193,118.919,104.657,117.508,101.582z"/>
</g>
</svg>
