<?xml version="1.0" encoding="utf-8"?>
<!-- Generator: Adobe Illustrator 17.0.0, SVG Export Plug-In . SVG Version: 6.00 Build 0)  -->
<!DOCTYPE svg PUBLIC "-//W3C//DTD SVG 1.1//EN" "http://www.w3.org/Graphics/SVG/1.1/DTD/svg11.dtd">
<svg version="1.1" id="Capa_1" xmlns="http://www.w3.org/2000/svg" xmlns:xlink="http://www.w3.org/1999/xlink" x="0px" y="0px"
	 width="170.5px" height="49px" viewBox="0 0 170.5 49" enable-background="new 0 0 170.5 49" xml:space="preserve">
<g>
	<g>
		<path fill="#fff" d="M73.421,13.337h3.662l7.355,22.445h-3.224l-1.627-5.347h-8.732l-1.69,5.347h-2.911L73.421,13.337z
			 M75.174,15.979h-0.063l-3.537,11.969h7.23L75.174,15.979z"/>
		<path fill="#fff" d="M89.664,35.782h-2.566V13.337h2.566V35.782z"/>
		<path fill="#fff" d="M94.389,20.083v-3.016l2.566-1.15v4.166h3.443v1.927h-3.443v9.606c0,0.995,0,2.269,2.347,2.269
			c0.188,0,0.594-0.062,1.158-0.124v1.958c-0.845,0.062-1.69,0.249-2.535,0.249c-2.441,0-3.537-0.995-3.537-2.798V22.01h-2.598
			v-1.927H94.389z"/>
		<path fill="#fff" d="M102.37,28.165c0-4.601,0.532-8.393,6.009-8.393s6.009,3.792,6.009,8.393c0,6.932-2.66,7.927-6.009,7.927
			C105.03,36.093,102.37,35.098,102.37,28.165z M111.696,27.077c0-4.29-1.346-5.223-3.318-5.223c-1.972,0-3.317,0.933-3.317,5.223
			c0,5.098,0.657,6.932,3.317,6.932C111.039,34.01,111.696,32.176,111.696,27.077z"/>
	</g>
	<g>
		<path fill="#02B25F" d="M116.485,20.083h2.848l2.848,13.523h0.062l3.505-13.523h3.63l3.224,13.523h0.062l3.13-13.523h2.723
			l-4.225,15.699h-3.443l-3.38-13.367h-0.063l-3.536,13.367h-3.443L116.485,20.083z"/>
		<path fill="#02B25F" d="M143.556,28.756c0,4.383,1.189,5.254,3.192,5.254c1.753,0,2.66-1.399,2.754-2.984h2.817
			c-0.031,3.482-2.191,5.067-5.508,5.067c-3.349,0-6.009-0.995-6.009-7.927c0-4.601,0.532-8.393,6.009-8.393
			c4.507,0,5.633,2.456,5.633,7.647v1.337H143.556z M149.722,26.829c0-4.57-1.283-5.129-3.161-5.129
			c-1.628,0-2.973,0.777-3.005,5.129H149.722z"/>
		<path fill="#02B25F" d="M159.486,35.782h-2.567V13.337h2.567v8.331h0.094c0.876-1.244,1.972-1.896,3.474-1.896
			c5.101,0,5.227,4.508,5.227,8.424c0,6.901-2.566,7.896-5.101,7.896c-1.659,0-2.754-0.715-3.631-2.176h-0.062V35.782z
			 M162.366,34.01c3.224,0,3.224-3.42,3.224-5.782c0-4.197-0.376-6.373-3.13-6.373c-2.848,0-2.973,3.357-2.973,5.44
			C159.486,29.689,159.205,34.01,162.366,34.01z"/>
	</g>
	<path fill="#fff" d="M2.219,10.795v30.567c2.829,0.33,5.581-1.06,6.978-3.525L27.064,6.332L2.219,10.795z"/>
	<path fill="#02B25F" d="M21.404,27.618l-8.565,14.984l10.945,1.277c3.753,0.438,7.05-2.474,7.05-6.227V22.165
		C26.932,22.165,23.33,24.248,21.404,27.618z"/>
	<path fill="#fff" d="M43.322,11.936v25.148c0,5.175,3.9,9.531,9.075,10.134V1.782l-0.629,0.113
		C46.878,2.773,43.322,7.001,43.322,11.936z"/>
</g>
</svg>
